# xmcd
# 
# Track frame offsets:
#     150
#     4170
#     22010
#     46357
#     69487
#     89115
#     108937
#     123790
#     143742
#     167420
#     177237
# 
# Disc length: 2609
# 
# Revision: 0
# Processed by: cddbd v1.5.2PL0 Copyright (c) Steve Scherf et al.
# Submitted via: fre:ac v1.0.31
# 
DISCID=8c0a2f0b
DTITLE=jizue - ROOM
DYEAR=2018
DGENRE=Jazz
TTITLE0=to enter
TTITLE1=elephant in the room
TTITLE2=grass (album version)
TTITLE3=trip
TTITLE4=Sing-la (森羅) feat.元ちとせ
TTITLE5=Englishman in New York
TTITLE6=Detour
TTITLE7=swallow
TTITLE8=green lake
TTITLE9=birth
TTITLE10=I Miss You (EM remix)
EXTD=
EXTT0=
EXTT1=
EXTT2=
EXTT3=
EXTT4=
EXTT5=
EXTT6=
EXTT7=
EXTT8=
EXTT9=
EXTT10=
PLAYORDER=
